<?xml version="1.0" encoding="iso-8859-1"?>
<!-- Generator: Adobe Illustrator 19.0.0, SVG Export Plug-In . SVG Version: 6.00 Build 0)  -->
<svg version="1.1" id="Layer_1" xmlns="http://www.w3.org/2000/svg" xmlns:xlink="http://www.w3.org/1999/xlink" x="0px" y="0px"
	 viewBox="0 0 512 512" style="enable-background:new 0 0 512 512;" xml:space="preserve">
<g>
	<g>
		<path d="M501.333,170.667H256V74.655c0-4.073-2.313-7.781-5.958-9.573c-3.646-1.761-8.021-1.365-11.229,1.135L4.146,247.556
			C1.521,249.577,0,252.692,0,255.994c0,3.302,1.521,6.417,4.146,8.438l234.667,181.339c1.896,1.479,4.208,2.229,6.521,2.229
			c1.604,0,3.208-0.365,4.708-1.094c3.646-1.792,5.958-5.5,5.958-9.573V341.33h245.333c5.896,0,10.667-4.771,10.667-10.667V181.325
			C512,175.429,507.229,170.667,501.333,170.667z M490.667,320H245.333c-5.896,0-10.667,4.771-10.667,10.667v84.948L28.104,256
			L234.667,96.385v84.948c0,5.896,4.771,10.667,10.667,10.667h245.333V320z"/>
	</g>
</g>
<g>
</g>
<g>
</g>
<g>
</g>
<g>
</g>
<g>
</g>
<g>
</g>
<g>
</g>
<g>
</g>
<g>
</g>
<g>
</g>
<g>
</g>
<g>
</g>
<g>
</g>
<g>
</g>
<g>
</g>
</svg>
