<?xml version="1.0" encoding="iso-8859-1"?>
<!-- Generator: Adobe Illustrator 19.0.0, SVG Export Plug-In . SVG Version: 6.00 Build 0)  -->
<svg version="1.1" id="Layer_1" xmlns="http://www.w3.org/2000/svg" xmlns:xlink="http://www.w3.org/1999/xlink" x="0px" y="0px"
	 viewBox="0 0 512 512" style="enable-background:new 0 0 512 512;" xml:space="preserve">
<g>
	<g>
		<path d="M507.854,247.559L273.188,66.225c-3.208-2.5-7.583-2.906-11.229-1.135c-3.646,1.792-5.958,5.5-5.958,9.573v96H10.667
			C4.771,170.663,0,175.434,0,181.329v149.333c0,5.896,4.771,10.667,10.667,10.667H256v96c0,4.073,2.313,7.781,5.958,9.573
			c1.5,0.729,3.104,1.094,4.708,1.094c2.313,0,4.625-0.75,6.521-2.229l234.667-181.333c2.625-2.021,4.146-5.135,4.146-8.437
			C512,252.694,510.479,249.579,507.854,247.559z M277.333,415.611v-84.948c0-5.896-4.771-10.667-10.667-10.667H21.333v-128h245.333
			c5.896,0,10.667-4.771,10.667-10.667V96.382l206.563,159.615L277.333,415.611z"/>
	</g>
</g>
<g>
</g>
<g>
</g>
<g>
</g>
<g>
</g>
<g>
</g>
<g>
</g>
<g>
</g>
<g>
</g>
<g>
</g>
<g>
</g>
<g>
</g>
<g>
</g>
<g>
</g>
<g>
</g>
<g>
</g>
</svg>
