<?xml version="1.0" encoding="iso-8859-1"?>
<!-- Generator: Adobe Illustrator 19.0.0, SVG Export Plug-In . SVG Version: 6.00 Build 0)  -->
<svg version="1.1" id="Layer_1" xmlns="http://www.w3.org/2000/svg" xmlns:xlink="http://www.w3.org/1999/xlink" x="0px" y="0px"
	 viewBox="0 0 512 512" style="enable-background:new 0 0 512 512;" xml:space="preserve">
<g>
	<g>
		<path d="M446.906,261.969c-1.792-3.656-5.5-5.969-9.573-5.969h-96V10.667C341.333,4.771,336.562,0,330.667,0H181.333
			c-5.896,0-10.667,4.771-10.667,10.667V256h-96c-4.073,0-7.781,2.313-9.573,5.969c-1.792,3.646-1.354,8,1.135,11.219
			l181.333,234.667c2.021,2.615,5.135,4.146,8.438,4.146c3.302,0,6.417-1.531,8.437-4.146l181.333-234.667
			C448.26,269.969,448.698,265.615,446.906,261.969z M256,483.885L96.385,277.333h84.948c5.896,0,10.667-4.771,10.667-10.667V21.333
			h128v245.333c0,5.896,4.771,10.667,10.667,10.667h84.948L256,483.885z"/>
	</g>
</g>
<g>
</g>
<g>
</g>
<g>
</g>
<g>
</g>
<g>
</g>
<g>
</g>
<g>
</g>
<g>
</g>
<g>
</g>
<g>
</g>
<g>
</g>
<g>
</g>
<g>
</g>
<g>
</g>
<g>
</g>
</svg>
